<svg width="304" height="44" viewBox="0 0 304 44" fill="none" xmlns="http://www.w3.org/2000/svg">
<path opacity="0.2" fill-rule="evenodd" clip-rule="evenodd" d="M210.41 2.10818C199.776 2.11602 190.828 2.08079 186.209 1.98869C177.084 1.80674 155.451 2.35263 138.134 3.2063C124.822 3.86103 103.012 5.28779 83.2134 6.70738C77.6713 6.73548 72.0574 6.74642 66.5249 6.73758C17.1001 6.6588 10.7649 6.92182 8.2996 9.15489C5.74577 11.4695 5.73904 11.6626 8.21221 11.6869C8.89072 11.6935 9.58862 11.818 10.187 12.017C9.08863 12.3494 8.45602 12.734 7.97949 13.1924C7.87327 13.2946 7.7716 13.3929 7.67449 13.4872C3.85586 12.9393 3.31183 13.2976 3.96636 15.7767C4.11302 16.332 4.11146 16.9747 3.98673 17.6347C3.61979 17.8646 3.52216 18.2633 3.6121 18.8818C3.25551 19.7471 2.71095 20.5661 2.03616 21.1773C-0.48033 23.4569 -0.4063 23.6461 3.07973 23.8458L3.2445 23.855C2.9414 24.4253 2.55728 24.9523 2.10889 25.3837C-0.332695 27.7326 -0.252542 27.9196 3.23894 28.0211C5.3058 28.0811 7.51416 28.0491 8.14634 27.9501C8.67064 27.8679 10.4788 28.9315 12.4618 30.4455C10.9628 30.6706 11.4752 30.9674 13.6248 31.6707C13.857 31.7466 14.0847 31.8282 14.3071 31.9145C15.3582 32.7105 16.4684 33.3556 17.637 33.8497C18.8574 34.9252 19.089 35.9192 17.5702 35.9966C13.1337 36.2225 18.6584 38.8613 29.0344 41.4723C40.324 44.3132 40.952 44.3039 95.7061 40.5004C107.371 39.6902 119.364 38.7795 130.251 37.8912C136.376 38.0038 143.786 38.0583 151.362 38.0469C157.118 38.1976 162.953 38.3125 168.38 38.3743C200.381 38.7424 280.315 37.7259 269.653 37.0865C260.582 36.5425 265.274 34.9822 279.587 33.7833C286.965 33.1651 293.267 31.9554 293.592 31.095C293.915 30.2346 296.148 29.55 298.552 29.5735C301.806 29.6055 302.936 28.8678 302.972 26.6868C302.985 25.855 302.787 25.2003 302.29 24.6659C302.903 24.1919 303.147 23.4726 303.13 22.4314C303.098 20.4606 301.909 19.5167 298.384 18.8794C299.923 18.8101 300.266 18.6512 299.588 18.2692C300.069 17.9051 299.991 17.2006 299.589 15.9926C299.453 15.5817 299.395 15.1163 299.406 14.627C299.947 14.5143 299.942 14.3536 299.445 14.0991C299.6 12.8123 300.194 11.4389 301.09 10.4905C303.378 8.0672 303.293 7.8828 299.889 7.89054C298.024 7.8949 296.044 7.98177 295.274 8.08879C294.741 7.55709 293.297 6.82374 291.127 5.98141C290.62 5.61954 290.096 5.22571 289.575 4.81131C286.626 2.46559 283.256 1.36203 279.472 1.50249C278.627 1.53389 277.532 1.56475 276.222 1.59487C268.387 0.0226636 258.943 0.343661 213.936 1.97795C212.763 2.02052 211.588 2.06395 210.41 2.10818ZM25.9504 15.119C25.7638 15.1544 25.579 15.1899 25.3961 15.2257C24.9431 15.1453 24.4927 15.0608 24.0468 14.9724C24.6849 15.0165 25.3206 15.0656 25.9504 15.119ZM14.006 11.292C15.0136 11.1651 16.1914 11.0463 17.5749 10.9331C15.0214 10.8437 13.9253 10.9258 14.006 11.292Z" fill="url(#paint0_linear_71_47020)"/>
<defs>
<linearGradient id="paint0_linear_71_47020" x1="-0.731718" y1="5.48352" x2="98.4357" y2="165.66" gradientUnits="userSpaceOnUse">
<stop stop-color="#BB2649"/>
<stop offset="1" stop-color="#D42B53"/>
</linearGradient>
</defs>
</svg>
